<svg height="512" viewBox="0 0 58 59" width="512" xmlns="http://www.w3.org/2000/svg"><g id="Page-1" fill="none" fill-rule="evenodd"><g id="021---Coffee-Book" fill-rule="nonzero"><path id="Shape" d="m49 26h-6.47c-.5522847 0-1-.4477153-1-1s.4477153-1 1-1h6.47c1.6568542 0 3-1.3431458 3-3s-1.3431458-3-3-3h-5c-.5522847 0-1-.4477153-1-1s.4477153-1 1-1h5c2.7614237 0 5 2.2385763 5 5s-2.2385763 5-5 5z" fill="#f0c419"/><path id="Shape" d="m58 57c-.0081672 1.1011688-.8988312 1.9918328-2 2h-45.69c-5.32501409.06779-9.80437605-3.9758363-10.28-9.28-.19991146-2.7693387.76056309-5.4971265 2.65146594-7.5302738 1.89090285-2.0331472 4.5419894-3.1886027 7.31853406-3.1897262h46c1.1032019.0032948 1.9967052.8967981 2 2-.0081672 1.1011688-.8988312 1.9918328-2 2h-46c-3.2494364.0056802-5.9065153 2.5919037-6 5.84.02641344 3.4262669 2.82371036 6.1832828 6.25 6.16h45.75c1.1032019.0032948 1.9967052.8967981 2 2z" fill="#a56a43"/><path id="Shape" d="m53 49c-.0235975 2.0628844.3887326 4.1074967 1.21 6h-43.96c-3.42628964.0232828-6.22358656-2.7337331-6.25-6.16.0934847-3.2480963 2.7505636-5.8343198 6-5.84h44.21c-.8212674 1.8925033-1.2335975 3.9371156-1.21 6z" fill="#f9eab0"/><g fill="#fac176"><path id="Shape" d="m34 48h-24c-.55228475 0-1-.4477153-1-1s.44771525-1 1-1h24c.5522847 0 1 .4477153 1 1s-.4477153 1-1 1z"/><path id="Shape" d="m48 48h-10c-.5522847 0-1-.4477153-1-1s.4477153-1 1-1h10c.5522847 0 1 .4477153 1 1s-.4477153 1-1 1z"/><path id="Shape" d="m48 52h-24c-.5522847 0-1-.4477153-1-1s.4477153-1 1-1h24c.5522847 0 1 .4477153 1 1s-.4477153 1-1 1z"/><path id="Shape" d="m20 52h-10c-.55228475 0-1-.4477153-1-1s.44771525-1 1-1h10c.5522847 0 1 .4477153 1 1s-.4477153 1-1 1z"/></g><path id="Shape" d="m15 13h28c1.1045695 0 2 .8954305 2 2v4c0 7.1797017-5.8202983 13-13 13h-6c-7.1797017 0-13-5.8202983-13-13v-4c0-1.1045695.8954305-2 2-2z" fill="#f3d55b"/><path id="Shape" d="m26 29c-5.5203344-.0060624-9.9939376-4.4796656-10-10 0-.5522847.4477153-1 1-1s1 .4477153 1 1c.0049599 4.4162219 3.5837781 7.9950401 8 8 .5522847 0 1 .4477153 1 1s-.4477153 1-1 1z" fill="#f9eab0"/><path id="Shape" d="m20.992 11c-.18708-.0001865-.3703562-.0528481-.529-.152-.8651462-.4725174-1.420091-1.36316015-1.463-2.348.043939-.98375209.5987417-1.87302914 1.463-2.345.342-.211.537-.455.537-.655s-.2-.444-.522-.649c-.8704223-.47071988-1.4310947-1.36256078-1.478-2.351.042909-.98483985.5978538-1.87548257 1.463-2.348.3036758-.18917214.6852059-.20196532 1.0008716-.03356047.3156658.16840485.51751.49242303.5295.85000001.01199.35757699-.1676958.69438834-.4713716.88356046-.322.201-.522.448-.522.648s.2.444.522.649c.8704223.47071988 1.4310947 1.36256078 1.478 2.351-.043939.98375209-.5987417 1.87302914-1.463 2.345-.337.214-.537.455-.537.655s.2.444.522.649c.3813116.23530168.5595602.69552331.4362204 1.1262816-.1233398.4307584-.5181571.7268931-.9662204.7247184z" fill="#95a5a5"/><path id="Shape" d="m36.992 11c-.18708-.0001865-.3703562-.0528481-.529-.152-.8651462-.4725174-1.420091-1.36316015-1.463-2.348.043939-.98375209.5987417-1.87302914 1.463-2.345.342-.211.537-.455.537-.655s-.2-.444-.522-.649c-.8704223-.47071988-1.4310947-1.36256078-1.478-2.351.042909-.98483985.5978538-1.87548257 1.463-2.348.469442-.29243478 1.0870652-.14894204 1.3795.3205s.148942 1.08706522-.3205 1.3795c-.322.201-.522.448-.522.648s.2.444.522.649c.8704223.47071988 1.4310947 1.36256078 1.478 2.351-.043939.98375209-.5987417 1.87302914-1.463 2.345-.337.214-.537.455-.537.655s.2.444.522.649c.3813116.23530168.5595602.69552331.4362204 1.1262816-.1233398.4307584-.5181571.7268931-.9662204.7247184z" fill="#95a5a5"/><path id="Shape" d="m28.992 11c-.18708-.0001865-.3703562-.0528481-.529-.152-.8651462-.4725174-1.420091-1.36316015-1.463-2.348.043939-.98375209.5987417-1.87302914 1.463-2.345.342-.211.537-.455.537-.655s-.2-.444-.522-.649c-.8704223-.47071988-1.4310947-1.36256078-1.478-2.351.042909-.98483985.5978538-1.87548257 1.463-2.348.3036758-.18917214.6852059-.20196532 1.0008716-.03356047.3156658.16840485.51751.49242303.5295.85000001.01199.35757699-.1676958.69438833-.4713716.88356046-.322.201-.522.448-.522.648s.2.444.522.649c.8704223.47071988 1.4310947 1.36256078 1.478 2.351-.043939.98375209-.5987417 1.87302914-1.463 2.345-.337.214-.537.455-.537.655s.2.444.522.649c.3813116.23530168.5595602.69552331.4362204 1.1262816-.1233398.4307584-.5181571.7268931-.9662204.7247184z" fill="#95a5a5"/><path id="Shape" d="m29 39h9c4.0684177.116451 7.8699476-2.0184494 9.888-5.553.1553431-.3108588.1381628-.6800764-.0453763-.9751664-.183539-.2950901-.5071168-.4737357-.8546237-.4718336h-35.98c-.3475069-.0019021-.6710847.1767435-.8546237.4718336-.18353906.29509-.20071944.6643076-.0453763.9751664 2.0187344 3.5358422 5.822165 5.6709463 9.892 5.553z" fill="#f0c419"/></g></g></svg>